<svg fill="#FFFFFF" xmlns="http://www.w3.org/2000/svg" viewBox="0 0 48 48" width="48px"
    height="48px">
    <path
        d="M24 4C12.9721 4 4 12.9721 4 24C4 35.0279 12.9721 44 24 44C35.0279 44 44 35.0279 44 24C44 12.9721 35.0279 4 24 4ZM12 16H36C36.5523 16 37 16.4477 37 17V31C37 31.5523 36.5523 32 36 32H12C11.4477 32 11 31.5523 11 31V17C11 16.4477 11.4477 16 12 16ZM24 24L12.7071 18.7071C12.3166 18.3166 11.6834 18.3166 11.2929 18.7071C10.9024 19.0976 10.9024 19.7308 11.2929 20.1213L24 30L36.7071 20.1213C37.0976 19.7308 37.0976 19.0976 36.7071 18.7071C36.3166 18.3166 35.6834 18.3166 35.2929 18.7071L24 24Z" />
</svg>
  